<svg xmlns="http://www.w3.org/2000/svg"  viewBox="0 0 256 256" width="64px" height="64px"><path fill="#FCA265" d="M66.43,53.5H47.046c0,4.418-3.582,8-8,8s-8-3.582-8-8H11.661c-2.273,0-4.115,1.843-4.115,4.115v50.77 c0,2.273,1.842,4.115,4.115,4.115h41.015l17.87-17.87V57.615C70.546,55.343,68.703,53.5,66.43,53.5z"/><circle cx="39.046" cy="53.5" r="8" fill="#F5C84C"/><path fill="#FCA265" d="M66.43,124H47.046c0,4.418-3.582,8-8,8s-8-3.582-8-8H11.661c-2.273,0-4.115,1.843-4.115,4.115v50.77 c0,2.273,1.842,4.115,4.115,4.115h41.015l17.87-17.87v-37.015C70.546,125.843,68.703,124,66.43,124z"/><circle cx="39.046" cy="124" r="8" fill="#F5C84C"/><path fill="#FCA265" d="M66.43,194.5H47.046c0,4.418-3.582,8-8,8s-8-3.582-8-8H11.661c-2.273,0-4.115,1.843-4.115,4.115v50.77 c0,2.273,1.842,4.115,4.115,4.115h41.015l17.87-17.87v-37.015C70.546,196.343,68.703,194.5,66.43,194.5z"/><circle cx="39.046" cy="194.5" r="8" fill="#F5C84C"/><path fill="#FCA265" d="M67.726,14.5H10.402c-1.568,0-2.838,1.271-2.838,2.838v10.323c0,1.568,1.271,2.838,2.838,2.838h57.324 c1.568,0,2.838-1.271,2.838-2.838V17.338C70.564,15.771,69.293,14.5,67.726,14.5z"/><path fill="#F98FA6" d="M146.43,53.5h-19.385c0,4.418-3.582,8-8,8s-8-3.582-8-8H91.661c-2.273,0-4.115,1.843-4.115,4.115v50.77 c0,2.273,1.842,4.115,4.115,4.115h41.015l17.87-17.87V57.615C150.546,55.343,148.703,53.5,146.43,53.5z"/><circle cx="119.046" cy="53.5" r="8" fill="#F5C84C"/><path fill="#F98FA6" d="M146.43,124h-19.385c0,4.418-3.582,8-8,8s-8-3.582-8-8H91.661c-2.273,0-4.115,1.843-4.115,4.115v50.77 c0,2.273,1.842,4.115,4.115,4.115h41.015l17.87-17.87v-37.015C150.546,125.843,148.703,124,146.43,124z"/><circle cx="119.046" cy="124" r="8" fill="#F5C84C"/><path fill="#FC657E" d="M147.726,14.5H90.402c-1.568,0-2.838,1.271-2.838,2.838v10.323c0,1.568,1.271,2.838,2.838,2.838h57.324 c1.568,0,2.838-1.271,2.838-2.838V17.338C150.564,15.771,149.293,14.5,147.726,14.5z"/><path fill="#B2E26D" d="M226.43,53.5h-19.385c0,4.418-3.582,8-8,8s-8-3.582-8-8h-19.385c-2.273,0-4.115,1.843-4.115,4.115v50.77 c0,2.273,1.842,4.115,4.115,4.115h41.015l17.87-17.87V57.615C230.546,55.343,228.703,53.5,226.43,53.5z"/><circle cx="199.046" cy="53.5" r="8" fill="#F5C84C"/><path fill="#B2E26D" d="M226.43,124h-19.385c0,4.418-3.582,8-8,8s-8-3.582-8-8h-19.385c-2.273,0-4.115,1.843-4.115,4.115v50.77 c0,2.273,1.842,4.115,4.115,4.115h41.015l17.87-17.87v-37.015C230.546,125.843,228.703,124,226.43,124z"/><circle cx="199.046" cy="124" r="8" fill="#F5C84C"/><path fill="#B2E26D" d="M226.43,194.5h-19.385c0,4.418-3.582,8-8,8s-8-3.582-8-8h-19.385c-2.273,0-4.115,1.843-4.115,4.115 v50.77c0,2.273,1.842,4.115,4.115,4.115h41.015l17.87-17.87v-37.015C230.546,196.343,228.703,194.5,226.43,194.5z"/><circle cx="199.046" cy="194.5" r="8" fill="#F5C84C"/><path fill="#B2E26D" d="M227.726,14.5h-57.324c-1.568,0-2.838,1.271-2.838,2.838v10.323c0,1.568,1.271,2.838,2.838,2.838h57.324 c1.568,0,2.838-1.271,2.838-2.838V17.338C230.564,15.771,229.293,14.5,227.726,14.5z"/><path fill="#DAE6F1" d="M212.498,71.869c-2.005-2.004-5.255-2.004-7.26,0l-8.237,8.237l-4.129-4.129 c-2.005-2.004-5.255-2.004-7.26,0c-2.005,2.005-2.005,5.255,0,7.26l7.759,7.759c1.003,1.002,2.316,1.503,3.63,1.503 c1.314,0,2.628-0.501,3.63-1.503l11.867-11.867C214.503,77.125,214.503,73.874,212.498,71.869z"/><path fill="#DAE6F1" d="M212.498,142.369c-2.005-2.004-5.255-2.004-7.26,0l-8.237,8.237l-4.129-4.129 c-2.005-2.004-5.255-2.004-7.26,0c-2.005,2.005-2.005,5.255,0,7.26l7.759,7.759c1.003,1.002,2.316,1.503,3.63,1.503 c1.314,0,2.628-0.501,3.63-1.503l11.867-11.867C214.503,147.625,214.503,144.374,212.498,142.369z"/><path fill="#DAE6F1" d="M212.498,212.869c-2.005-2.004-5.255-2.004-7.26,0l-8.237,8.237l-4.129-4.129 c-2.005-2.004-5.255-2.004-7.26,0c-2.005,2.005-2.005,5.255,0,7.26l7.759,7.759c1.003,1.002,2.316,1.503,3.63,1.503 c1.314,0,2.628-0.501,3.63-1.503l11.867-11.867C214.503,218.125,214.503,214.874,212.498,212.869z"/><path fill="#FC8C48" d="M56.791,94.63c-2.273,0-4.115,1.843-4.115,4.115V112.5l17.87-17.87H56.791z"/><path fill="#FC8C48" d="M56.791,165.13c-2.273,0-4.115,1.843-4.115,4.115V183l17.87-17.87H56.791z"/><path fill="#FC8C48" d="M56.791,235.63c-2.273,0-4.115,1.843-4.115,4.115V253.5l17.87-17.87H56.791z"/><path fill="#FC657E" d="M136.791,94.63c-2.273,0-4.115,1.843-4.115,4.115V112.5l17.87-17.87H136.791z"/><path fill="#FC657E" d="M136.791,165.13c-2.273,0-4.115,1.843-4.115,4.115V183l17.87-17.87H136.791z"/><path fill="#87D147" d="M216.791,94.63c-2.273,0-4.115,1.843-4.115,4.115V112.5l17.87-17.87H216.791z"/><path fill="#87D147" d="M216.791,165.13c-2.273,0-4.115,1.843-4.115,4.115V183l17.87-17.87H216.791z"/><path fill="#87D147" d="M216.791,235.63c-2.273,0-4.115,1.843-4.115,4.115V253.5l17.87-17.87H216.791z"/><path fill="#FC657E" d="M110.104,216.396c-4.5-0.8-8-4.3-8.9-8.7c0-0.2-0.4-0.2-0.4,0c-0.9,4.4-4.4,7.9-8.9,8.7 c-0.2,0-0.2,0.3,0,0.4c4.5,0.8,8,4.3,8.9,8.7c0,0.2,0.4,0.2,0.4,0c0.9-4.4,4.4-7.9,8.9-8.7 C110.304,216.697,110.304,216.396,110.104,216.396z"/><path fill="#F5C84C" d="M85.665,6.21c-3.158-0.561-5.613-3.017-6.245-6.104c0-0.14-0.281-0.14-0.281,0 c-0.631,3.087-3.087,5.543-6.245,6.104c-0.14,0-0.14,0.21,0,0.281c3.158,0.562,5.613,3.017,6.245,6.104 c0,0.14,0.281,0.14,0.281,0c0.631-3.087,3.087-5.543,6.245-6.104C85.805,6.42,85.805,6.21,85.665,6.21z"/><path fill="#70D6F9" d="M247.754,107.646h-2.3v-2.3c0-1.7-1.4-3.2-3.2-3.2s-3.2,1.4-3.2,3.2v2.3h-2.3c-1.7,0-3.2,1.4-3.2,3.2 c0,1.8,1.4,3.2,3.2,3.2h2.3v2.3c0,1.7,1.4,3.2,3.2,3.2s3.2-1.4,3.2-3.2v-2.3h2.3c1.7,0,3.2-1.4,3.2-3.2 C250.954,109.047,249.554,107.646,247.754,107.646z"/><path fill="#F5C84C" d="M88.904,238c-1.878,0-3.4,1.522-3.4,3.4c0,1.878,1.522,3.4,3.4,3.4s3.4-1.522,3.4-3.4 C92.304,239.522,90.782,238,88.904,238z"/><path fill="#87D147" d="M158.854,38c-1.878,0-3.4,1.522-3.4,3.4c0,1.878,1.522,3.4,3.4,3.4c1.878,0,3.4-1.522,3.4-3.4 C162.254,39.522,160.732,38,158.854,38z"/><path d="M66.43,51H47.583c-1.381,0-2.5,1.119-2.5,2.5s1.119,2.5,2.5,2.5H66.43c0.891,0,1.615,0.725,1.615,1.615v35.979 L51.64,110H11.661c-0.891,0-1.615-0.725-1.615-1.615v-50.77c0-0.891,0.725-1.615,1.615-1.615h18.756c1.381,0,2.5-1.119,2.5-2.5 s-1.119-2.5-2.5-2.5H11.661c-3.647,0-6.615,2.968-6.615,6.615v50.77c0,3.647,2.968,6.615,6.615,6.615h41.015 c0.663,0,1.299-0.264,1.768-0.732l17.87-17.87c0.469-0.469,0.732-1.104,0.732-1.768V57.615C73.045,53.968,70.078,51,66.43,51z"/><path d="M39.045,43c-5.79,0-10.5,4.71-10.5,10.5s4.71,10.5,10.5,10.5s10.5-4.71,10.5-10.5S44.835,43,39.045,43z M39.045,59 c-3.033,0-5.5-2.468-5.5-5.5s2.467-5.5,5.5-5.5s5.5,2.468,5.5,5.5S42.078,59,39.045,59z"/><path d="M41.78,91.277H21.885c-1.381,0-2.5,1.119-2.5,2.5s1.119,2.5,2.5,2.5H41.78c1.381,0,2.5-1.119,2.5-2.5 S43.161,91.277,41.78,91.277z"/><path d="M56.207,81.5H21.885c-1.381,0-2.5,1.119-2.5,2.5s1.119,2.5,2.5,2.5h34.322c1.381,0,2.5-1.119,2.5-2.5 S57.587,81.5,56.207,81.5z"/><path d="M56.207,71.723H21.885c-1.381,0-2.5,1.119-2.5,2.5s1.119,2.5,2.5,2.5h34.322c1.381,0,2.5-1.119,2.5-2.5 S57.587,71.723,56.207,71.723z"/><path d="M66.43,121.5H48c-1.381,0-2.5,1.119-2.5,2.5s1.119,2.5,2.5,2.5h18.43c0.891,0,1.615,0.725,1.615,1.615v35.979 L51.64,180.5H11.661c-0.891,0-1.615-0.725-1.615-1.615v-50.77c0-0.891,0.725-1.615,1.615-1.615h18.402 c1.381,0,2.5-1.119,2.5-2.5s-1.119-2.5-2.5-2.5H11.661c-3.647,0-6.615,2.968-6.615,6.615v50.77c0,3.647,2.968,6.615,6.615,6.615 h41.015c0.663,0,1.299-0.264,1.768-0.732l17.87-17.87c0.469-0.469,0.732-1.104,0.732-1.768v-37.015 C73.045,124.468,70.078,121.5,66.43,121.5z"/><path d="M39.045,113.5c-5.79,0-10.5,4.71-10.5,10.5s4.71,10.5,10.5,10.5s10.5-4.71,10.5-10.5S44.835,113.5,39.045,113.5z M39.045,129.5c-3.033,0-5.5-2.468-5.5-5.5s2.467-5.5,5.5-5.5s5.5,2.468,5.5,5.5S42.078,129.5,39.045,129.5z"/><path d="M41.78,161.777H21.885c-1.381,0-2.5,1.119-2.5,2.5s1.119,2.5,2.5,2.5H41.78c1.381,0,2.5-1.119,2.5-2.5 S43.161,161.777,41.78,161.777z"/><path d="M56.207,152H21.885c-1.381,0-2.5,1.119-2.5,2.5s1.119,2.5,2.5,2.5h34.322c1.381,0,2.5-1.119,2.5-2.5 S57.587,152,56.207,152z"/><path d="M56.207,142.223H21.885c-1.381,0-2.5,1.119-2.5,2.5s1.119,2.5,2.5,2.5h34.322c1.381,0,2.5-1.119,2.5-2.5 S57.587,142.223,56.207,142.223z"/><path d="M66.43,192H47.833c-1.381,0-2.5,1.119-2.5,2.5s1.119,2.5,2.5,2.5H66.43c0.891,0,1.615,0.725,1.615,1.615v35.979 L51.64,251H11.661c-0.891,0-1.615-0.725-1.615-1.615v-50.77c0-0.891,0.725-1.615,1.615-1.615h18.465c1.381,0,2.5-1.119,2.5-2.5 s-1.119-2.5-2.5-2.5H11.661c-3.647,0-6.615,2.968-6.615,6.615v50.77c0,3.647,2.968,6.615,6.615,6.615h41.015 c0.663,0,1.299-0.264,1.768-0.732l17.87-17.87c0.469-0.469,0.732-1.104,0.732-1.768v-37.015 C73.045,194.968,70.078,192,66.43,192z"/><path d="M39.045,184c-5.79,0-10.5,4.71-10.5,10.5s4.71,10.5,10.5,10.5s10.5-4.71,10.5-10.5S44.835,184,39.045,184z M39.045,200 c-3.033,0-5.5-2.468-5.5-5.5s2.467-5.5,5.5-5.5s5.5,2.468,5.5,5.5S42.078,200,39.045,200z"/><path d="M41.78,232.277H21.885c-1.381,0-2.5,1.119-2.5,2.5s1.119,2.5,2.5,2.5H41.78c1.381,0,2.5-1.119,2.5-2.5 S43.161,232.277,41.78,232.277z"/><path d="M56.207,222.5H21.885c-1.381,0-2.5,1.119-2.5,2.5s1.119,2.5,2.5,2.5h34.322c1.381,0,2.5-1.119,2.5-2.5 S57.587,222.5,56.207,222.5z"/><path d="M56.207,212.723H21.885c-1.381,0-2.5,1.119-2.5,2.5s1.119,2.5,2.5,2.5h34.322c1.381,0,2.5-1.119,2.5-2.5 S57.587,212.723,56.207,212.723z"/><path d="M67.726,12H10.402c-2.943,0-5.338,2.395-5.338,5.338v10.324c0,2.943,2.395,5.338,5.338,5.338h57.324 c2.943,0,5.338-2.395,5.338-5.338V17.338C73.064,14.395,70.669,12,67.726,12z M68.064,27.662c0,0.187-0.152,0.338-0.338,0.338 H10.402c-0.187,0-0.338-0.151-0.338-0.338V17.338c0-0.187,0.151-0.338,0.338-0.338h57.324c0.187,0,0.338,0.151,0.338,0.338 V27.662z"/><path d="M146.431,51h-18.577c-1.381,0-2.5,1.119-2.5,2.5s1.119,2.5,2.5,2.5h18.577c0.891,0,1.615,0.725,1.615,1.615v35.979 L131.641,110h-39.98c-0.891,0-1.615-0.725-1.615-1.615v-50.77c0-0.891,0.725-1.615,1.615-1.615h18.714 c1.381,0,2.5-1.119,2.5-2.5s-1.119-2.5-2.5-2.5H91.661c-3.647,0-6.615,2.968-6.615,6.615v50.77c0,3.647,2.968,6.615,6.615,6.615 h41.015c0.663,0,1.299-0.264,1.768-0.732l17.87-17.87c0.469-0.469,0.732-1.104,0.732-1.768V57.615 C153.046,53.968,150.078,51,146.431,51z"/><path d="M119.045,43c-5.79,0-10.5,4.71-10.5,10.5s4.71,10.5,10.5,10.5s10.5-4.71,10.5-10.5S124.835,43,119.045,43z M119.045,59 c-3.033,0-5.5-2.468-5.5-5.5s2.467-5.5,5.5-5.5s5.5,2.468,5.5,5.5S122.078,59,119.045,59z"/><path d="M121.78,91.277h-19.895c-1.381,0-2.5,1.119-2.5,2.5s1.119,2.5,2.5,2.5h19.895c1.381,0,2.5-1.119,2.5-2.5 S123.161,91.277,121.78,91.277z"/><path d="M136.206,81.5h-34.321c-1.381,0-2.5,1.119-2.5,2.5s1.119,2.5,2.5,2.5h34.321c1.381,0,2.5-1.119,2.5-2.5 S137.587,81.5,136.206,81.5z"/><path d="M136.206,71.723h-34.321c-1.381,0-2.5,1.119-2.5,2.5s1.119,2.5,2.5,2.5h34.321c1.381,0,2.5-1.119,2.5-2.5 S137.587,71.723,136.206,71.723z"/><path d="M146.431,121.5h-18.639c-1.381,0-2.5,1.119-2.5,2.5s1.119,2.5,2.5,2.5h18.639c0.891,0,1.615,0.725,1.615,1.615v35.979 L131.641,180.5h-39.98c-0.891,0-1.615-0.725-1.615-1.615v-50.77c0-0.891,0.725-1.615,1.615-1.615h18.672 c1.381,0,2.5-1.119,2.5-2.5s-1.119-2.5-2.5-2.5H91.661c-3.647,0-6.615,2.968-6.615,6.615v50.77c0,3.647,2.968,6.615,6.615,6.615 h41.015c0.663,0,1.299-0.264,1.768-0.732l17.87-17.87c0.469-0.469,0.732-1.104,0.732-1.768v-37.015 C153.046,124.468,150.078,121.5,146.431,121.5z"/><path d="M119.045,113.5c-5.79,0-10.5,4.71-10.5,10.5s4.71,10.5,10.5,10.5s10.5-4.71,10.5-10.5S124.835,113.5,119.045,113.5z M119.045,129.5c-3.033,0-5.5-2.468-5.5-5.5s2.467-5.5,5.5-5.5s5.5,2.468,5.5,5.5S122.078,129.5,119.045,129.5z"/><path d="M121.78,161.777h-19.895c-1.381,0-2.5,1.119-2.5,2.5s1.119,2.5,2.5,2.5h19.895c1.381,0,2.5-1.119,2.5-2.5 S123.161,161.777,121.78,161.777z"/><path d="M136.206,152h-34.321c-1.381,0-2.5,1.119-2.5,2.5s1.119,2.5,2.5,2.5h34.321c1.381,0,2.5-1.119,2.5-2.5 S137.587,152,136.206,152z"/><path d="M136.206,142.223h-34.321c-1.381,0-2.5,1.119-2.5,2.5s1.119,2.5,2.5,2.5h34.321c1.381,0,2.5-1.119,2.5-2.5 S137.587,142.223,136.206,142.223z"/><path d="M147.726,12H90.402c-2.943,0-5.338,2.395-5.338,5.338v10.324c0,2.943,2.395,5.338,5.338,5.338h57.324 c2.943,0,5.338-2.395,5.338-5.338V17.338C153.063,14.395,150.669,12,147.726,12z M148.063,27.662 c0,0.187-0.151,0.338-0.338,0.338H90.402c-0.187,0-0.338-0.151-0.338-0.338V17.338c0-0.187,0.151-0.338,0.338-0.338h57.324 c0.187,0,0.338,0.151,0.338,0.338V27.662z"/><path d="M226.431,51h-18.556c-1.381,0-2.5,1.119-2.5,2.5s1.119,2.5,2.5,2.5h18.556c0.891,0,1.615,0.725,1.615,1.615v35.979 L211.641,110h-39.979c-0.891,0-1.615-0.725-1.615-1.615v-50.77c0-0.891,0.725-1.615,1.615-1.615h18.652 c1.381,0,2.5-1.119,2.5-2.5s-1.119-2.5-2.5-2.5h-18.652c-3.647,0-6.615,2.968-6.615,6.615v50.77 c0,3.647,2.968,6.615,6.615,6.615h41.015c0.663,0,1.299-0.264,1.768-0.732l17.87-17.87c0.469-0.469,0.732-1.104,0.732-1.768 V57.615C233.046,53.968,230.078,51,226.431,51z"/><path d="M199.046,43c-5.79,0-10.5,4.71-10.5,10.5s4.71,10.5,10.5,10.5s10.5-4.71,10.5-10.5S204.836,43,199.046,43z M199.046,59 c-3.032,0-5.5-2.468-5.5-5.5s2.468-5.5,5.5-5.5s5.5,2.468,5.5,5.5S202.078,59,199.046,59z"/><path d="M226.431,121.5h-18.243c-1.381,0-2.5,1.119-2.5,2.5s1.119,2.5,2.5,2.5h18.243c0.891,0,1.615,0.725,1.615,1.615v35.979 L211.641,180.5h-39.979c-0.891,0-1.615-0.725-1.615-1.615v-50.77c0-0.891,0.725-1.615,1.615-1.615h18.401 c1.381,0,2.5-1.119,2.5-2.5s-1.119-2.5-2.5-2.5h-18.401c-3.647,0-6.615,2.968-6.615,6.615v50.77 c0,3.647,2.968,6.615,6.615,6.615h41.015c0.663,0,1.299-0.264,1.768-0.732l17.87-17.87c0.469-0.469,0.732-1.104,0.732-1.768 v-37.015C233.046,124.468,230.078,121.5,226.431,121.5z"/><path d="M199.046,113.5c-5.79,0-10.5,4.71-10.5,10.5s4.71,10.5,10.5,10.5s10.5-4.71,10.5-10.5S204.836,113.5,199.046,113.5z M199.046,129.5c-3.032,0-5.5-2.468-5.5-5.5s2.468-5.5,5.5-5.5s5.5,2.468,5.5,5.5S202.078,129.5,199.046,129.5z"/><path d="M226.431,192h-18.473c-1.381,0-2.5,1.119-2.5,2.5s1.119,2.5,2.5,2.5h18.473c0.891,0,1.615,0.725,1.615,1.615v35.979 L211.641,251h-39.979c-0.891,0-1.615-0.725-1.615-1.615v-50.77c0-0.891,0.725-1.615,1.615-1.615h18.547 c1.381,0,2.5-1.119,2.5-2.5s-1.119-2.5-2.5-2.5h-18.547c-3.647,0-6.615,2.968-6.615,6.615v50.77 c0,3.647,2.968,6.615,6.615,6.615h41.015c0.663,0,1.299-0.264,1.768-0.732l17.87-17.87c0.469-0.469,0.732-1.104,0.732-1.768 v-37.015C233.046,194.968,230.078,192,226.431,192z"/><path d="M199.046,184c-5.79,0-10.5,4.71-10.5,10.5s4.71,10.5,10.5,10.5s10.5-4.71,10.5-10.5S204.836,184,199.046,184z M199.046,200c-3.032,0-5.5-2.468-5.5-5.5s2.468-5.5,5.5-5.5s5.5,2.468,5.5,5.5S202.078,200,199.046,200z"/><path d="M227.726,12h-57.323c-2.944,0-5.339,2.395-5.339,5.338v10.324c0,2.943,2.395,5.338,5.339,5.338h57.323 c2.943,0,5.338-2.395,5.338-5.338V17.338C233.063,14.395,230.669,12,227.726,12z M228.063,27.662 c0,0.187-0.151,0.338-0.338,0.338h-57.323c-0.187,0-0.339-0.151-0.339-0.338V17.338c0-0.187,0.152-0.338,0.339-0.338h57.323 c0.187,0,0.338,0.151,0.338,0.338V27.662z"/><path d="M214.266,70.101c-2.977-2.973-7.819-2.974-10.796,0.001l-6.469,6.469l-2.362-2.362 c-2.976-2.974-7.819-2.974-10.795,0.001c-2.977,2.977-2.977,7.819,0,10.796l7.759,7.758c1.441,1.442,3.358,2.237,5.398,2.237 c2.039,0,3.956-0.794,5.397-2.236l11.867-11.866C217.242,77.921,217.242,73.078,214.266,70.101z M210.73,77.362 l-11.867,11.866c-0.997,0.995-2.729,0.996-3.725,0l-7.76-7.759c-1.027-1.027-1.027-2.698-0.001-3.725 c0.515-0.514,1.189-0.77,1.864-0.77s1.349,0.256,1.862,0.769l4.129,4.13c0.469,0.469,1.104,0.732,1.768,0.732 s1.299-0.264,1.768-0.732l8.235-8.236c1.029-1.027,2.699-1.026,3.727-0.001C211.758,74.664,211.758,76.335,210.73,77.362z"/><path d="M214.266,140.601c-2.977-2.973-7.819-2.974-10.796,0.001l-6.469,6.469l-2.362-2.362 c-2.976-2.974-7.819-2.974-10.795,0.001c-2.977,2.977-2.977,7.819,0,10.796l7.759,7.758c1.441,1.442,3.358,2.237,5.398,2.237 c2.039,0,3.956-0.794,5.397-2.236l11.867-11.866C217.242,148.421,217.242,143.578,214.266,140.601z M210.73,147.862 l-11.867,11.866c-0.997,0.995-2.729,0.996-3.725,0l-7.76-7.759c-1.027-1.027-1.027-2.698-0.001-3.725 c0.515-0.514,1.189-0.77,1.864-0.77s1.349,0.256,1.862,0.769l4.129,4.13c0.469,0.469,1.104,0.732,1.768,0.732 s1.299-0.264,1.768-0.732l8.235-8.236c1.029-1.027,2.699-1.026,3.727-0.001C211.758,145.164,211.758,146.835,210.73,147.862z"/><path d="M214.266,211.101c-2.977-2.973-7.819-2.974-10.796,0.001l-6.469,6.469l-2.362-2.362 c-2.976-2.974-7.819-2.974-10.795,0.001c-2.977,2.977-2.977,7.819,0,10.796l7.759,7.758c1.441,1.442,3.358,2.237,5.398,2.237 c2.039,0,3.956-0.794,5.397-2.236l11.867-11.866C217.242,218.921,217.242,214.078,214.266,211.101z M210.73,218.362 l-11.867,11.866c-0.997,0.995-2.729,0.995-3.725,0l-7.76-7.759c-1.027-1.027-1.027-2.698-0.001-3.725 c0.515-0.514,1.189-0.77,1.864-0.77s1.349,0.256,1.862,0.769l4.129,4.13c0.469,0.469,1.104,0.732,1.768,0.732 s1.299-0.264,1.768-0.732l8.235-8.236c1.029-1.027,2.699-1.026,3.727-0.001C211.758,215.664,211.758,217.335,210.73,218.362z"/><path d="M69.781,92.13h-12.99c-3.647,0-6.615,2.968-6.615,6.615v12.88c0,1.381,1.119,2.5,2.5,2.5s2.5-1.119,2.5-2.5v-12.88 c0-0.891,0.725-1.615,1.615-1.615h12.99c1.381,0,2.5-1.119,2.5-2.5S71.162,92.13,69.781,92.13z"/><path d="M69.667,162.63H56.791c-3.647,0-6.615,2.968-6.615,6.615v12.713c0,1.381,1.119,2.5,2.5,2.5s2.5-1.119,2.5-2.5v-12.713 c0-0.891,0.725-1.615,1.615-1.615h12.876c1.381,0,2.5-1.119,2.5-2.5S71.048,162.63,69.667,162.63z"/><path d="M69.458,233.13H56.791c-3.647,0-6.615,2.968-6.615,6.615v12.88c0,1.381,1.119,2.5,2.5,2.5s2.5-1.119,2.5-2.5v-12.88 c0-0.891,0.725-1.615,1.615-1.615h12.667c1.381,0,2.5-1.119,2.5-2.5S70.838,233.13,69.458,233.13z"/><path d="M149.531,92.13h-12.74c-3.647,0-6.615,2.968-6.615,6.615v12.713c0,1.381,1.119,2.5,2.5,2.5s2.5-1.119,2.5-2.5V98.745 c0-0.891,0.725-1.615,1.615-1.615h12.74c1.381,0,2.5-1.119,2.5-2.5S150.912,92.13,149.531,92.13z"/><path d="M149.625,162.63h-12.834c-3.647,0-6.615,2.968-6.615,6.615V182c0,1.381,1.119,2.5,2.5,2.5s2.5-1.119,2.5-2.5v-12.755 c0-0.891,0.725-1.615,1.615-1.615h12.834c1.381,0,2.5-1.119,2.5-2.5S151.006,162.63,149.625,162.63z"/><path d="M229.687,92.13h-12.896c-3.647,0-6.615,2.968-6.615,6.615v12.838c0,1.381,1.119,2.5,2.5,2.5s2.5-1.119,2.5-2.5V98.745 c0-0.891,0.725-1.615,1.615-1.615h12.896c1.381,0,2.5-1.119,2.5-2.5S231.068,92.13,229.687,92.13z"/><path d="M229.708,162.63h-12.917c-3.647,0-6.615,2.968-6.615,6.615v12.713c0,1.381,1.119,2.5,2.5,2.5s2.5-1.119,2.5-2.5v-12.713 c0-0.891,0.725-1.615,1.615-1.615h12.917c1.381,0,2.5-1.119,2.5-2.5S231.089,162.63,229.708,162.63z"/><path d="M229.625,233.13h-12.834c-3.647,0-6.615,2.968-6.615,6.615v12.713c0,1.381,1.119,2.5,2.5,2.5s2.5-1.119,2.5-2.5v-12.713 c0-0.891,0.725-1.615,1.615-1.615h12.834c1.381,0,2.5-1.119,2.5-2.5S231.006,233.13,229.625,233.13z"/></svg>