<svg xmlns="http://www.w3.org/2000/svg"  viewBox="0 0 64 64" width="128px" height="128px"><path fill="#FAB400" d="M59.414,48.586l-6-6c-0.571-0.572-1.433-0.743-2.179-0.434C50.487,42.462,50,43.191,50,44v2H28v8h22v2 c0,0.809,0.487,1.538,1.235,1.848C51.482,57.95,51.742,58,52,58c0.521,0,1.032-0.203,1.415-0.586l6-6 C60.195,50.633,60.195,49.367,59.414,48.586z"/><path fill="#00A0C8" d="M59.924,17.617C59.769,17.244,59.404,17,59,17h-0.75c0-6.203-5.047-11.25-11.25-11.25 S35.75,10.797,35.75,17c0,3.005,1.17,5.831,3.295,7.955l3.182-3.183C40.952,20.498,40.25,18.803,40.25,17 c0-3.722,3.028-6.75,6.75-6.75s6.75,3.028,6.75,6.75H53c-0.404,0-0.769,0.244-0.924,0.617c-0.155,0.374-0.069,0.804,0.217,1.09 l3,3C55.488,21.902,55.744,22,56,22s0.512-0.098,0.707-0.293l3-3C59.993,18.421,60.079,17.991,59.924,17.617z"/><path fill="#DC9600" d="M44.962,46H29v8C35.523,54,41.309,50.847,44.962,46z"/><path fill="#0082AA" d="M40.261,17.234c-1.305-1.018-2.733-1.883-4.268-2.555c-0.158,0.75-0.244,1.526-0.244,2.321 c0,3.005,1.17,5.831,3.295,7.955l3.182-3.183C41.008,20.554,40.32,18.949,40.261,17.234z"/><path fill="#C80A50" d="M28,14C17.647,14,9.106,21.908,8.099,32H6c-0.809,0-1.538,0.487-1.848,1.235 c-0.31,0.747-0.139,1.607,0.434,2.179l6,6C10.976,41.805,11.488,42,12,42s1.024-0.195,1.414-0.586l6-6 c0.572-0.572,0.743-1.432,0.434-2.179C19.538,32.487,18.809,32,18,32h-1.832C17.123,26.332,22.065,22,28,22 c6.617,0,12,5.383,12,12s-5.383,12-12,12H6c-1.105,0-2,0.895-2,2v4c0,1.105,0.895,2,2,2h22c11.028,0,20-8.972,20-20 S39.028,14,28,14z"/><path fill="#00A0C8" d="M35.062,35.768l-1.167-0.674C33.961,34.739,34,34.374,34,34s-0.039-0.739-0.104-1.094l1.167-0.674 c0.478-0.276,0.642-0.888,0.366-1.366l-1-1.732c-0.276-0.478-0.888-0.642-1.366-0.366l-0.591,0.341 c-0.324,0.187-0.732,0.189-1.038-0.025c-0.281-0.196-0.579-0.368-0.892-0.514C30.202,28.412,30,28.057,30,27.683V27 c0-0.552-0.448-1-1-1h-2c-0.552,0-1,0.448-1,1v0.683c0,0.374-0.202,0.729-0.541,0.887c-0.313,0.146-0.611,0.318-0.892,0.514 c-0.306,0.214-0.715,0.212-1.038,0.025l-0.591-0.341c-0.478-0.276-1.09-0.112-1.366,0.366l-1,1.732 c-0.276,0.478-0.112,1.09,0.366,1.366l1.167,0.674C22.039,33.261,22,33.626,22,34s0.039,0.739,0.104,1.094l-1.167,0.674 c-0.478,0.276-0.642,0.888-0.366,1.366l1,1.732c0.276,0.478,0.888,0.642,1.366,0.366l0.591-0.341 c0.324-0.187,0.732-0.189,1.038,0.025c0.281,0.196,0.579,0.368,0.892,0.514C25.798,39.588,26,39.943,26,40.317V41 c0,0.552,0.448,1,1,1h2c0.552,0,1-0.448,1-1v-0.683c0-0.374,0.202-0.729,0.541-0.887c0.313-0.146,0.611-0.318,0.892-0.514 c0.306-0.214,0.715-0.212,1.038-0.025l0.591,0.341c0.478,0.276,1.09,0.112,1.366-0.366l1-1.732 C35.704,36.656,35.54,36.044,35.062,35.768z M28,38c-2.209,0-4-1.791-4-4c0-2.209,1.791-4,4-4s4,1.791,4,4 C32,36.209,30.209,38,28,38z"/></svg>